<svg xmlns="http://www.w3.org/2000/svg" width="512" height="512" viewBox="0 0 512 512"><rect width="512" height="512" fill="#bec9d2"/><path d="M0 260L512 315V512H0Z" fill="#a5b4c0"/><path d="M15,260 L500,315" stroke="#52616c" stroke-width="2.5" opacity="1" fill="none"/><circle cx="40.5" cy="273.8333333333333" r="2.4" fill="#697784"/><circle cx="40.0" cy="273.1333333333333" r="1.15" fill="#e1e5e6"/><circle cx="71.5" cy="277.5" r="2.4" fill="#697784"/><circle cx="71.0" cy="276.8" r="1.15" fill="#e1e5e6"/><circle cx="102.5" cy="281.1666666666667" r="2.4" fill="#697784"/><circle cx="102.0" cy="280.4666666666667" r="1.15" fill="#e1e5e6"/><circle cx="133.5" cy="284.8333333333333" r="2.4" fill="#697784"/><circle cx="133.0" cy="284.1333333333333" r="1.15" fill="#e1e5e6"/><circle cx="164.5" cy="288.5" r="2.4" fill="#697784"/><circle cx="164.0" cy="287.8" r="1.15" fill="#e1e5e6"/><circle cx="195.5" cy="292.1666666666667" r="2.4" fill="#697784"/><circle cx="195.0" cy="291.4666666666667" r="1.15" fill="#e1e5e6"/><circle cx="226.5" cy="295.8333333333333" r="2.4" fill="#697784"/><circle cx="226.0" cy="295.1333333333333" r="1.15" fill="#e1e5e6"/><circle cx="257.5" cy="299.5" r="2.4" fill="#697784"/><circle cx="257.0" cy="298.8" r="1.15" fill="#e1e5e6"/><circle cx="288.5" cy="303.1666666666667" r="2.4" fill="#697784"/><circle cx="288.0" cy="302.4666666666667" r="1.15" fill="#e1e5e6"/><circle cx="319.5" cy="306.8333333333333" r="2.4" fill="#697784"/><circle cx="319.0" cy="306.1333333333333" r="1.15" fill="#e1e5e6"/><circle cx="350.5" cy="310.5" r="2.4" fill="#697784"/><circle cx="350.0" cy="309.8" r="1.15" fill="#e1e5e6"/><circle cx="381.5" cy="314.1666666666667" r="2.4" fill="#697784"/><circle cx="381.0" cy="313.4666666666667" r="1.15" fill="#e1e5e6"/><circle cx="412.5" cy="317.8333333333333" r="2.4" fill="#697784"/><circle cx="412.0" cy="317.1333333333333" r="1.15" fill="#e1e5e6"/><circle cx="443.5" cy="321.5" r="2.4" fill="#697784"/><circle cx="443.0" cy="320.8" r="1.15" fill="#e1e5e6"/><circle cx="474.5" cy="325.1666666666667" r="2.4" fill="#697784"/><circle cx="474.0" cy="324.4666666666667" r="1.15" fill="#e1e5e6"/><path d="M165,40 L165,480" stroke="#52616c" stroke-width="2" opacity="1" fill="none"/><circle cx="173.0" cy="89.75" r="2.4" fill="#697784"/><circle cx="172.5" cy="89.05" r="1.15" fill="#e1e5e6"/><circle cx="173.0" cy="129.25" r="2.4" fill="#697784"/><circle cx="172.5" cy="128.55" r="1.15" fill="#e1e5e6"/><circle cx="173.0" cy="168.75" r="2.4" fill="#697784"/><circle cx="172.5" cy="168.05" r="1.15" fill="#e1e5e6"/><circle cx="173.0" cy="208.25" r="2.4" fill="#697784"/><circle cx="172.5" cy="207.55" r="1.15" fill="#e1e5e6"/><circle cx="173.0" cy="247.75" r="2.4" fill="#697784"/><circle cx="172.5" cy="247.05" r="1.15" fill="#e1e5e6"/><circle cx="173.0" cy="287.25" r="2.4" fill="#697784"/><circle cx="172.5" cy="286.55" r="1.15" fill="#e1e5e6"/><circle cx="173.0" cy="326.75" r="2.4" fill="#697784"/><circle cx="172.5" cy="326.05" r="1.15" fill="#e1e5e6"/><circle cx="173.0" cy="366.25" r="2.4" fill="#697784"/><circle cx="172.5" cy="365.55" r="1.15" fill="#e1e5e6"/><circle cx="173.0" cy="405.75" r="2.4" fill="#697784"/><circle cx="172.5" cy="405.05" r="1.15" fill="#e1e5e6"/><circle cx="173.0" cy="445.25" r="2.4" fill="#697784"/><circle cx="172.5" cy="444.55" r="1.15" fill="#e1e5e6"/><path d="M350,40 L350,480" stroke="#52616c" stroke-width="2" opacity="1" fill="none"/><circle cx="358.0" cy="89.75" r="2.4" fill="#697784"/><circle cx="357.5" cy="89.05" r="1.15" fill="#e1e5e6"/><circle cx="358.0" cy="129.25" r="2.4" fill="#697784"/><circle cx="357.5" cy="128.55" r="1.15" fill="#e1e5e6"/><circle cx="358.0" cy="168.75" r="2.4" fill="#697784"/><circle cx="357.5" cy="168.05" r="1.15" fill="#e1e5e6"/><circle cx="358.0" cy="208.25" r="2.4" fill="#697784"/><circle cx="357.5" cy="207.55" r="1.15" fill="#e1e5e6"/><circle cx="358.0" cy="247.75" r="2.4" fill="#697784"/><circle cx="357.5" cy="247.05" r="1.15" fill="#e1e5e6"/><circle cx="358.0" cy="287.25" r="2.4" fill="#697784"/><circle cx="357.5" cy="286.55" r="1.15" fill="#e1e5e6"/><circle cx="358.0" cy="326.75" r="2.4" fill="#697784"/><circle cx="357.5" cy="326.05" r="1.15" fill="#e1e5e6"/><circle cx="358.0" cy="366.25" r="2.4" fill="#697784"/><circle cx="357.5" cy="365.55" r="1.15" fill="#e1e5e6"/><circle cx="358.0" cy="405.75" r="2.4" fill="#697784"/><circle cx="357.5" cy="405.05" r="1.15" fill="#e1e5e6"/><circle cx="358.0" cy="445.25" r="2.4" fill="#697784"/><circle cx="357.5" cy="444.55" r="1.15" fill="#e1e5e6"/></svg>